{"title":"The Darkest Hour 2011 V2 READNFO TS XViD DTRG","uid":6919262,"size":835285355,"categoryP":"video","categoryS":"movies","magnet":"?xt=urn:btih:d89c05926f107630efd6b474755171f16514ceb1&amp;dn=The+Darkest+Hour+2011+V2+READNFO+TS+XViD+DTRG&amp;tr=udp%3A%2F%2Ftracker.openbittorrent.com%3A80&amp;tr=udp%3A%2F%2Fopen.demonii.com%3A1337&amp;tr=udp%3A%2F%2Ftracker.coppersurfer.tk%3A6969&amp;tr=udp%3A%2F%2Fexodus.desync.com%3A6969","seeders":1,"leechers":0,"uploader":".BONE.","files":5,"time":1325155518,"description":"Format : AVI\nFormat/Info : Audio Video Interleave\nFile size : 788 MiB\nDuration : 1h 23mn\nOverall bit rate : 1 326 Kbps\nWriting library : VirtualDub build 32842/release\n\nVideo\nID : 0\nFormat : MPEG-4 Visual\nFormat profile : Advanced Simple@L5\nFormat settings, BVOP : 1\nFormat settings, QPel : No\nFormat settings, GMC : No warppoints\nFormat settings, Matrix : Default (H.263)\nMuxing mode : Packed bitstream\nCodec ID : XVID\nCodec ID/Hint : XviD\nDuration : 1h 23mn\nBit rate : 1 188 Kbps\nWidth : 524 pixels\nHeight : 222 pixels\nDisplay aspect ratio : 2.35:1\nFrame rate : 25.000 fps\nColor space : YUV\nChroma subsampling : 4:2:0\nBit depth : 8 bits\nScan type : Progressive\nCompression mode : Lossy\nBits/(Pixel*Frame) : 0.409\nStream size : 706 MiB (90%)\nWriting library : XviD 64\n\nAudio\nID : 1\nFormat : MPEG Audio\nFormat version : Version 1\nFormat profile : Layer 3\nCodec ID : 55\nCodec ID/Hint : MP3\nDuration : 1h 23mn\nBit rate mode : Constant\nBit rate : 128 Kbps\nChannel(s) : 2 channels\nSampling rate : 44.1 KHz\nCompression mode : Lossy\nDelay relative to video : 16ms\nStream size : 76.0 MiB (10%)\nAlignment : Split accross interleaves\nInterleave, duration : 40 ms (1.00 video frame)\nInterleave, preload duration : 500 ms\n &lt;a href=&quot;\nhttp://www.imdb.com/title/tt1093357/&quot; rel=&quot;nofollow&quot; target=&quot;_NEW&quot;&gt;\nhttp://www.imdb.com/title/tt1093357/&lt;/a&gt;\n\n\nRatings: 5.5/10 from 911 users Metascore: 28/100 \nReviews: 15 user | 8 critic | 4 from Metacritic.com\n\nIn Moscow, five young people lead the charge against an alien race who have attacked Earth via our power supply.\nDirector:\nChris Gorak\nWriters:\nJon Spaihts (screenplay), Leslie Bohem (story), and 2 more credits Ã‚Â»\nStars:\nEmile Hirsch, Olivia Thirlby and Max Minghella \n &lt;a href=&quot;\nhttp://img209.imageshack.us/img209/885/vlcsnap2011122806h21m16.png&quot; rel=&quot;nofollow&quot; target=&quot;_NEW&quot;&gt;\nhttp://img209.imageshack.us/img209/885/vlcsnap2011122806h21m16.png&lt;/a&gt; &lt;a href=&quot;\nhttp://img839.imageshack.us/img839/1558/vlcsnap2011122806h25m21.png&quot; rel=&quot;nofollow&quot; target=&quot;_NEW&quot;&gt;\nhttp://img839.imageshack.us/img839/1558/vlcsnap2011122806h25m21.png&lt;/a&gt; &lt;a href=&quot;\nhttp://img545.imageshack.us/img545/3478/vlcsnap2011122807h12m19.png&quot; rel=&quot;nofollow&quot; target=&quot;_NEW&quot;&gt;\nhttp://img545.imageshack.us/img545/3478/vlcsnap2011122807h12m19.png&lt;/a&gt; &lt;a href=&quot;\nhttp://img208.imageshack.us/img208/3365/vlcsnap2011122806h26m51.png&quot; rel=&quot;nofollow&quot; target=&quot;_NEW&quot;&gt;\nhttp://img208.imageshack.us/img208/3365/vlcsnap2011122806h26m51.png&lt;/a&gt; &lt;a href=&quot;\nhttp://img339.imageshack.us/img339/1247/vlcsnap2011122807h21m24.png&quot; rel=&quot;nofollow&quot; target=&quot;_NEW&quot;&gt;\nhttp://img339.imageshack.us/img339/1247/vlcsnap2011122807h21m24.png&lt;/a&gt;\n\nSource Used\n\n\n\n\n\nUnknown...............Thanks/\n\n\nV2 as i thought i would have a crack at this wonderful vid ;-)\n\n\n\n\nOne for 100% cam lovers around the world :-) \n\n\nVid is not great at all not a great deal can be done with it so hopefully a better source shows \n\n\nDone what i can with this but not gonna be good enough for most.Vid had loads of noise/flicker/glare/scroll denoised heavily then slight sharpen back up\n\nAdded more saturation .........played with the levels filter (no not like that) to try and brighten it up abit......rest is blah blah ....probs abit like this release\n\n\nCheck out the sample included its needed \n\n\n\nOne last thing i noticed this seems to get playback errors in vlc player towards the end if you skip abit but media player plays it fine so lets hope you learned to read descriptions \n\nLets face it this is hardly one to watch on a big TV \n","torrent":{"xt":"urn:btih:d89c05926f107630efd6b474755171f16514ceb1","amp;dn":"The+Darkest+Hour+2011+V2+READNFO+TS+XViD+DTRG","amp;tr":["udp%3A%2F%2Ftracker.openbittorrent.com%3A80","udp%3A%2F%2Fopen.demonii.com%3A1337","udp%3A%2F%2Ftracker.coppersurfer.tk%3A6969","udp%3A%2F%2Fexodus.desync.com%3A6969"],"infoHash":"d89c05926f107630efd6b474755171f16514ceb1","infoHashBuffer":{"type":"Buffer","data":[216,156,5,146,111,16,118,48,239,214,180,116,117,81,113,241,101,20,206,177]},"announce":[],"urlList":[]}}